<?xml version="1.0" encoding="UTF-8" standalone="no"?>
<!-- Created with Inkscape (http://www.inkscape.org/) -->

<svg
   width="77.908852mm"
   height="55.672184mm"
   viewBox="0 0 77.908852 55.672184"
   version="1.1"
   id="svg5"
   xml:space="preserve"
   inkscape:version="1.2.2 (732a01da63, 2022-12-09)"
   sodipodi:docname="Figuras LiMa.svg"
   xmlns:inkscape="http://www.inkscape.org/namespaces/inkscape"
   xmlns:sodipodi="http://sodipodi.sourceforge.net/DTD/sodipodi-0.dtd"
   xmlns="http://www.w3.org/2000/svg"
   xmlns:svg="http://www.w3.org/2000/svg"><sodipodi:namedview
     id="namedview7"
     pagecolor="#ffffff"
     bordercolor="#000000"
     borderopacity="0.25"
     inkscape:showpageshadow="2"
     inkscape:pageopacity="0.0"
     inkscape:pagecheckerboard="0"
     inkscape:deskcolor="#d1d1d1"
     inkscape:document-units="mm"
     showgrid="false"
     inkscape:zoom="1.4788159"
     inkscape:cx="446.64112"
     inkscape:cy="279.6156"
     inkscape:window-width="1920"
     inkscape:window-height="991"
     inkscape:window-x="-9"
     inkscape:window-y="-9"
     inkscape:window-maximized="1"
     inkscape:current-layer="layer1" /><defs
     id="defs2" /><g
     inkscape:label="Capa 1"
     inkscape:groupmode="layer"
     id="layer1"
     transform="translate(-111.13232,-9.8298146)"><path
       style="fill:#000000;stroke-width:0.0661455"
       d="m 156.50232,43.587524 c -3.94412,-0.54956 -7.02506,-3.29255 -7.96582,-7.09205 -0.73103,-2.95245 0.037,-6.08152 2.06398,-8.40952 1.92162,-2.20694 4.95143,-3.42239 7.85314,-3.1504 4.17506,0.39134 7.48905,3.35563 8.37924,7.49503 0.20748,0.96477 0.20748,2.69817 0,3.66294 -0.49377,2.29607 -1.76871,4.32195 -3.57128,5.67481 -0.66122,0.49624 -1.87297,1.13681 -2.61749,1.38369 -1.21619,0.40326 -3.01537,0.59245 -4.14177,0.4355 z m 2.66659,-1.42943 c 3.97894,-0.75085 6.86277,-4.57312 6.46351,-8.56684 -0.19962,-1.99683 -0.95048,-3.5929 -2.34647,-4.98783 -1.23745,-1.23651 -2.64703,-1.96656 -4.34534,-2.25053 -0.95419,-0.15956 -2.36244,-0.10425 -3.25275,0.12775 -2.90065,0.75585 -5.08736,2.94697 -5.84649,5.8583 -0.22781,0.87369 -0.28198,2.29057 -0.12374,3.23692 0.59168,3.5385 3.44061,6.24397 7.03904,6.68458 0.61795,0.0757 1.71572,0.0291 2.41224,-0.10235 z m -2.54141,-3.02721 c -0.48397,-0.13945 -0.97456,-0.439 -1.28568,-0.78504 -0.3949,-0.43922 -0.57196,-0.92838 -0.61027,-1.686 l -0.031,-0.61185 h -0.42506 c -0.36311,0 -0.44873,-0.0237 -0.58743,-0.16236 -0.19629,-0.19629 -0.2121,-0.48916 -0.038,-0.70413 0.10429,-0.12879 0.20069,-0.15786 0.59796,-0.18031 l 0.47362,-0.0267 -0.0192,-0.50502 -0.0191,-0.50502 -0.485,-0.0331 c -0.37912,-0.0258 -0.50548,-0.0611 -0.57878,-0.16147 -0.13313,-0.1823 -0.11611,-0.45375 0.041,-0.65346 0.11741,-0.14926 0.19194,-0.17384 0.57878,-0.19083 l 0.44401,-0.0195 0.0425,-0.7276 c 0.0234,-0.40018 0.0913,-0.86155 0.15087,-1.02526 0.13651,-0.37496 0.45362,-0.83635 0.74473,-1.08357 0.49146,-0.41735 1.53464,-0.68151 2.36918,-0.59993 0.93157,0.0911 1.59936,0.3945 2.10435,0.95617 0.36024,0.40067 0.53375,0.86622 0.53823,1.4441 0.004,0.54379 -0.12791,0.67229 -0.69128,0.67229 -0.49617,0 -0.62279,-0.11004 -0.7204,-0.62611 -0.15686,-0.82922 -0.63295,-1.1929 -1.56163,-1.1929 -0.44165,0 -0.57797,0.0273 -0.82426,0.16537 -0.51923,0.29096 -0.72916,0.74285 -0.7298,1.57096 l -2.5e-4,0.47956 h 0.85449 c 0.46997,0 0.90488,0.0193 0.96647,0.0429 0.29445,0.11299 0.31439,0.73147 0.0285,0.88446 -0.0665,0.0356 -0.5099,0.0648 -0.98523,0.0648 h -0.86425 v 0.52405 0.52404 l 0.89132,0.0216 c 0.81384,0.0198 0.90393,0.0343 1.03629,0.16681 0.20824,0.20852 0.19272,0.52924 -0.0351,0.72521 -0.16878,0.14518 -0.2338,0.1549 -1.03629,0.1549 h -0.85621 l 5e-4,0.34727 c 5e-4,0.49725 0.10744,0.81588 0.37204,1.10876 0.41919,0.46398 1.22961,0.62642 1.88184,0.37718 0.52524,-0.20072 0.79305,-0.59117 0.88742,-1.29384 0.0439,-0.32681 0.0656,-0.36116 0.28646,-0.45345 0.30395,-0.12699 0.77473,-0.0797 0.9499,0.0955 0.4581,0.4581 -0.0265,1.89327 -0.8234,2.43843 -0.57712,0.39481 -0.97977,0.50711 -1.90098,0.53015 -0.54853,0.0138 -0.9294,-0.009 -1.13159,-0.0671 z m -12.93665,2.44419 c -0.21328,-0.0943 -0.4179,-0.3945 -0.41745,-0.61247 5e-4,-0.28305 0.25008,-0.52015 0.95117,-0.90397 0.38987,-0.21343 0.69859,-0.39831 0.68605,-0.41085 -0.0126,-0.0126 -0.40843,-0.21379 -0.87974,-0.44721 -3.16431,-1.56715 -5.6462,-4.25801 -6.88436,-7.46402 -0.34891,-0.90343 -0.29585,-1.27743 0.20463,-1.4426 0.19801,-0.0653 0.27256,-0.0586 0.4819,0.0437 0.22394,0.10942 0.2745,0.18752 0.52802,0.81554 1.01708,2.51958 2.54451,4.43483 4.77866,5.992 0.52384,0.3651 2.30876,1.31356 2.36542,1.25691 0.014,-0.0141 -0.18477,-0.40889 -0.44178,-0.87745 -0.58869,-1.07324 -0.61345,-1.39543 -0.12657,-1.6472 0.25547,-0.13211 0.58068,-0.0803 0.76511,0.12194 0.0741,0.0813 0.51051,0.82191 0.96969,1.64581 0.86952,1.56015 0.94834,1.78324 0.73674,2.08533 -0.10679,0.15248 -3.07474,1.84004 -3.34253,1.90055 -0.0904,0.0204 -0.25908,-0.005 -0.37496,-0.056 z m -1.97212,-13.06653 c -1.67125,-0.16157 -3.28904,-0.75775 -4.61812,-1.70185 -0.29649,-0.21061 -0.83827,-0.68057 -1.20396,-1.04438 -1.29936,-1.29264 -2.15731,-2.88662 -2.55667,-4.750034 -0.19291,-0.900165 -0.20837,-2.62986 -0.0314,-3.515795 0.67556,-3.382205 2.95938,-6.04578 6.14875,-7.171155 1.07833,-0.3804905 1.79522,-0.4955155 3.08824,-0.4955155 1.29303,0 2.00991,0.115025 3.08824,0.4955155 1.73711,0.61294 3.35696,1.81036 4.43801,3.28065 2.35968,3.209305 2.44564,7.5448 0.21468,10.827274 -1.89413,2.78688 -5.27258,4.39385 -8.56775,4.07529 z m 2.76576,-1.54531 c 2.9056,-0.76167 5.08608,-2.94683 5.84676,-5.859319 0.22238,-0.851445 0.28122,-2.339195 0.12742,-3.22193 -0.5493,-3.15268 -2.8326,-5.671325 -5.86322,-6.467545 -3.25568,-0.855355 -6.59431,0.349605 -8.60473,3.10557 -1.36768,1.874865 -1.82155,4.38885 -1.21154,6.71069 0.78452,2.986084 3.26771,5.267814 6.37213,5.855174 0.8158,0.15435 2.51502,0.0918 3.33318,-0.12264 z m -2.24691,-2.5073 c -0.0282,-0.0455 -0.0671,-0.20174 -0.0866,-0.34726 l -0.0354,-0.26459 -0.39688,-0.0403 c -0.50959,-0.0517 -0.90886,-0.16357 -1.31124,-0.36747 -0.40031,-0.20285 -0.86403,-0.62438 -0.97102,-0.882684 -0.15802,-0.3815 0.0771,-0.93018 0.43738,-1.0206 0.18197,-0.04565 0.30101,0.02 0.95192,0.52507 0.26533,0.205895 0.98523,0.49609 1.23066,0.49609 0.0763,0 0.0923,-0.273035 0.0923,-1.58237 v -1.58237 l -0.24804,-0.0797 c -0.57243,-0.183905 -1.31954,-0.59333 -1.61535,-0.885225 -0.50527,-0.49859 -0.61708,-0.79902 -0.61708,-1.6581 0,-0.66175 0.0166,-0.761495 0.18387,-1.10203 0.31818,-0.647905 0.94433,-1.087415 1.83614,-1.28881 0.44261,-0.09995 0.46046,-0.11157 0.46046,-0.299595 0,-0.316665 0.10793,-0.451495 0.36141,-0.451495 0.28319,0 0.43234,0.14668 0.43234,0.425175 v 0.217285 l 0.46305,0.04305 c 1.00495,0.0934 1.72004,0.477505 1.71951,0.923625 -2.5e-4,0.25965 -0.21177,0.61872 -0.42035,0.713755 -0.12826,0.05845 -0.2381,0.0354 -0.612,-0.128485 -0.25062,-0.10984 -0.53753,-0.216915 -0.63758,-0.23794 -0.10004,-0.02105 -0.25631,-0.05367 -0.34726,-0.07256 l -0.16537,-0.03435 v 1.39032 c 0,1.039755 0.0201,1.390325 0.0796,1.390325 0.20992,0 1.30566,0.611985 1.59616,0.89147 1.0133,0.974885 1.0064,2.935615 -0.0137,3.889799 -0.42088,0.39368 -0.81491,0.58994 -1.4802,0.73723 -0.16055,0.0356 -0.1819,0.0706 -0.1819,0.29888 0,0.14689 -0.0449,0.30349 -0.10395,0.36254 -0.12398,0.12398 -0.52844,0.13829 -0.6009,0.0213 z m 1.05539,-2.074794 c 0.60379,-0.30506 0.85256,-0.842805 0.70602,-1.526115 -0.088,-0.4103 -0.34835,-0.73185 -0.785,-0.969505 l -0.33771,-0.183805 v 1.39319 c 0,1.539019 -0.0118,1.502719 0.41669,1.286235 z m -1.07815,-5.65509 v -1.19799 l -0.24805,0.04535 c -0.37675,0.0689 -0.77885,0.331765 -0.90089,0.58895 -0.21628,0.45576 -0.11608,0.948575 0.2666,1.311275 0.16629,0.15761 0.69943,0.44503 0.83273,0.448935 0.0273,0.001 0.0496,-0.537645 0.0496,-1.196535 z m 20.36315,5.992344 c -0.12156,-0.066 -0.2379,-0.245924 -0.38034,-0.588064 -0.24001,-0.57654 -0.24723,-0.66391 -0.0778,-0.941795 0.1855,-0.30423 0.52506,-0.401695 0.84862,-0.24359 0.20499,0.10017 0.27812,0.19509 0.42451,0.550965 0.2479,0.60267 0.2404,0.819665 -0.038,1.098024 -0.24827,0.24827 -0.48063,0.28549 -0.77705,0.12446 z m -1.62673,-3.218019 c -0.0815,-0.04105 -0.31822,-0.300915 -0.526,-0.57745 -0.82174,-1.09365 -2.03465,-2.215985 -3.27572,-3.031105 -0.5859,-0.384815 -2.19183,-1.20893 -2.35581,-1.20893 -0.0375,0 0.14432,0.37951 0.40414,0.84336 0.54674,0.976095 0.59374,1.22035 0.29274,1.521355 -0.23175,0.231745 -0.69589,0.257285 -0.90151,0.0496 -0.20877,-0.210855 -1.85707,-3.220755 -1.85707,-3.391125 0,-0.372375 0.14975,-0.49175 1.72029,-1.371375 0.84443,-0.47294 1.61082,-0.880805 1.7031,-0.90636 0.37009,-0.102505 0.80994,0.249175 0.80994,0.647575 0,0.299125 -0.19916,0.511245 -0.77925,0.82995 -0.28083,0.154285 -0.59786,0.33296 -0.70452,0.397055 l -0.19393,0.116535 0.42544,0.18131 c 2.14609,0.914605 4.17268,2.46119 5.60827,4.27994 0.52727,0.668 0.62704,0.863855 0.5767,1.132185 -0.0765,0.407845 -0.58507,0.669685 -0.94681,0.487475 z"
       id="path302"
       inkscape:export-filename="logo.svg"
       inkscape:export-xdpi="62.541103"
       inkscape:export-ydpi="62.541103" /><text
       xml:space="preserve"
       style="font-size:22.5778px;line-height:0;font-family:Arial;-inkscape-font-specification:'Arial, Normal';fill:#d5e5ff;stroke-width:0.2"
       x="108.19985"
       y="64.774391"
       id="text405"><tspan
         sodipodi:role="line"
         id="tspan403"
         style="font-style:normal;font-variant:normal;font-weight:normal;font-stretch:normal;font-size:22.5778px;font-family:'Vladimir Script';-inkscape-font-specification:'Vladimir Script';fill:#000000;fill-opacity:1;stroke-width:0.2"
         x="108.19985"
         y="64.774391">TIMOS</tspan></text></g></svg>
