<?xml version="1.0" encoding="UTF-8" standalone="no"?>
<!-- Created with Inkscape (http://www.inkscape.org/) -->

<svg
   width="18.722931mm"
   height="18.74468mm"
   viewBox="0 0 18.722931 18.74468"
   version="1.1"
   id="svg5"
   xml:space="preserve"
   inkscape:version="1.2.2 (732a01da63, 2022-12-09)"
   sodipodi:docname="Figuras LiMa.svg"
   xmlns:inkscape="http://www.inkscape.org/namespaces/inkscape"
   xmlns:sodipodi="http://sodipodi.sourceforge.net/DTD/sodipodi-0.dtd"
   xmlns="http://www.w3.org/2000/svg"
   xmlns:svg="http://www.w3.org/2000/svg"><sodipodi:namedview
     id="namedview7"
     pagecolor="#ffffff"
     bordercolor="#000000"
     borderopacity="0.25"
     inkscape:showpageshadow="2"
     inkscape:pageopacity="0.0"
     inkscape:pagecheckerboard="0"
     inkscape:deskcolor="#d1d1d1"
     inkscape:document-units="mm"
     showgrid="false"
     inkscape:zoom="2.9576319"
     inkscape:cx="238.19732"
     inkscape:cy="593.8873"
     inkscape:window-width="1920"
     inkscape:window-height="991"
     inkscape:window-x="-9"
     inkscape:window-y="-9"
     inkscape:window-maximized="1"
     inkscape:current-layer="layer1" /><defs
     id="defs2" /><g
     inkscape:label="Capa 1"
     inkscape:groupmode="layer"
     id="layer1"
     transform="translate(-184.46181,-6.5409592)"><path
       style="fill:#000000;stroke-width:0.0661455"
       d="m 192.6986,25.230619 c -3.94412,-0.54956 -7.02506,-3.29255 -7.96582,-7.09205 -0.73103,-2.95245 0.037,-6.08152 2.06398,-8.4095201 1.92162,-2.20694 4.95143,-3.42239 7.85314,-3.1504 4.17506,0.39134 7.48905,3.35563 8.37924,7.4950301 0.20748,0.96477 0.20748,2.69817 0,3.66294 -0.49377,2.29607 -1.76871,4.32195 -3.57128,5.67481 -0.66122,0.49624 -1.87297,1.13681 -2.61749,1.38369 -1.21619,0.40326 -3.01537,0.59245 -4.14177,0.4355 z m 2.66659,-1.42943 c 3.97894,-0.75085 6.86277,-4.57312 6.46351,-8.56684 -0.19962,-1.99683 -0.95048,-3.5929 -2.34647,-4.98783 -1.23745,-1.2365101 -2.64703,-1.9665601 -4.34534,-2.2505301 -0.95419,-0.15956 -2.36244,-0.10425 -3.25275,0.12775 -2.90065,0.75585 -5.08736,2.9469701 -5.84649,5.8583001 -0.22781,0.87369 -0.28198,2.29057 -0.12374,3.23692 0.59168,3.5385 3.44061,6.24397 7.03904,6.68458 0.61795,0.0757 1.71572,0.0291 2.41224,-0.10235 z m -2.54141,-3.02721 c -0.48397,-0.13945 -0.97456,-0.439 -1.28568,-0.78504 -0.3949,-0.43922 -0.57196,-0.92838 -0.61027,-1.686 l -0.031,-0.61185 h -0.42506 c -0.36311,0 -0.44873,-0.0237 -0.58743,-0.16236 -0.19629,-0.19629 -0.2121,-0.48916 -0.038,-0.70413 0.10429,-0.12879 0.20069,-0.15786 0.59796,-0.18031 l 0.47362,-0.0267 -0.0192,-0.50502 -0.0191,-0.50502 -0.485,-0.0331 c -0.37912,-0.0258 -0.50548,-0.0611 -0.57878,-0.16147 -0.13313,-0.1823 -0.11611,-0.45375 0.041,-0.65346 0.11741,-0.14926 0.19194,-0.17384 0.57878,-0.19083 l 0.44401,-0.0195 0.0425,-0.7276 c 0.0234,-0.40018 0.0913,-0.86155 0.15087,-1.02526 0.13651,-0.37496 0.45362,-0.83635 0.74473,-1.08357 0.49146,-0.41735 1.53464,-0.68151 2.36918,-0.59993 0.93157,0.0911 1.59936,0.3945 2.10435,0.95617 0.36024,0.40067 0.53375,0.86622 0.53823,1.4441 0.004,0.54379 -0.12791,0.67229 -0.69128,0.67229 -0.49617,0 -0.62279,-0.11004 -0.7204,-0.62611 -0.15686,-0.82922 -0.63295,-1.1929 -1.56163,-1.1929 -0.44165,0 -0.57797,0.0273 -0.82426,0.16537 -0.51923,0.29096 -0.72916,0.74285 -0.7298,1.57096 l -2.5e-4,0.47956 h 0.85449 c 0.46997,0 0.90488,0.0193 0.96647,0.0429 0.29445,0.11299 0.31439,0.73147 0.0285,0.88446 -0.0665,0.0356 -0.5099,0.0648 -0.98523,0.0648 h -0.86425 v 0.52405 0.52404 l 0.89132,0.0216 c 0.81384,0.0198 0.90393,0.0343 1.03629,0.16681 0.20824,0.20852 0.19272,0.52924 -0.0351,0.72521 -0.16878,0.14518 -0.2338,0.1549 -1.03629,0.1549 h -0.85621 l 5e-4,0.34727 c 5e-4,0.49725 0.10744,0.81588 0.37204,1.10876 0.41919,0.46398 1.22961,0.62642 1.88184,0.37718 0.52524,-0.20072 0.79305,-0.59117 0.88742,-1.29384 0.0439,-0.32681 0.0656,-0.36116 0.28646,-0.45345 0.30395,-0.12699 0.77473,-0.0797 0.9499,0.0955 0.4581,0.4581 -0.0265,1.89327 -0.8234,2.43843 -0.57712,0.39481 -0.97977,0.50711 -1.90098,0.53015 -0.54853,0.0138 -0.9294,-0.009 -1.13159,-0.0671 z"
       id="path302-6-3"
       inkscape:export-filename="logo.svg"
       inkscape:export-xdpi="62.541103"
       inkscape:export-ydpi="62.541103"
       sodipodi:nodetypes="sscsssssscsssssssccsccscscccccssscccssscssscccscssccccsssccsssscsccc" /></g></svg>
